<?xml version="1.0" standalone="no"?>
<!DOCTYPE svg PUBLIC "-//W3C//DTD SVG 20010904//EN"
 "http://www.w3.org/TR/2001/REC-SVG-20010904/DTD/svg10.dtd">
<svg version="1.0" xmlns="http://www.w3.org/2000/svg"
 width="886.000000pt" height="886.000000pt" viewBox="0 0 886.000000 886.000000"
 preserveAspectRatio="xMidYMid meet">

<g transform="translate(0.000000,886.000000) scale(0.100000,-0.100000)"
fill="currentColor" stroke="none">
<path d="M4290 8845 c-94 -21 -195 -75 -280 -148 -41 -36 -932 -924 -1980
-1973 -2056 -2059 -1953 -1951 -2003 -2109 -17 -55 -22 -94 -22 -185 0 -91 5
-130 22 -185 50 -159 -59 -44 2058 -2160 2115 -2116 2001 -2007 2160 -2058 99
-31 271 -31 370 0 159 51 44 -59 2160 2058 2117 2116 2007 2001 2058 2160 31
99 31 271 0 370 -51 159 58 45 -2058 2160 -2108 2109 -2002 2008 -2155 2056
-86 27 -242 34 -330 14z m317 -2061 c271 -56 486 -224 597 -466 19 -40 39 -98
46 -129 12 -54 11 -192 -2 -204 -4 -4 -23 12 -44 35 -117 129 -350 236 -599
275 -142 23 -360 16 -484 -15 -168 -41 -318 -131 -382 -229 -28 -44 -37 -51
-65 -51 -50 0 -74 32 -74 95 0 121 92 296 234 444 116 120 233 194 376 237 94
29 280 32 397 8z m-1797 -1421 l0 -51 -87 -29 -88 -30 -3 -539 c-2 -331 1
-580 8 -645 11 -115 39 -228 71 -291 32 -62 104 -133 162 -159 45 -21 67 -24
172 -24 102 0 129 4 178 23 114 46 198 160 237 325 32 131 41 338 38 841 l-3
470 -50 12 c-27 7 -85 20 -127 29 l-78 17 0 52 0 51 330 0 330 0 0 -52 0 -51
-120 -28 -120 -27 0 -516 c0 -701 -12 -808 -106 -1000 -79 -160 -212 -270
-384 -317 -91 -25 -326 -25 -425 0 -293 75 -457 293 -495 657 -5 56 -10 340
-10 638 l0 537 -90 29 -90 29 0 50 0 51 375 0 375 0 0 -52z m2030 1 l0 -51
-97 -30 -98 -30 -3 -830 -2 -830 97 -30 98 -30 0 -51 0 -52 -405 -1 -405 0 0
52 0 52 98 30 97 30 0 831 0 831 -100 29 -100 29 0 51 0 51 410 0 410 0 0 -51z
m1203 42 c214 -35 350 -116 420 -251 31 -58 32 -64 32 -185 0 -111 -3 -130
-23 -172 -53 -106 -143 -178 -288 -233 l-83 -32 57 -17 c105 -33 213 -96 283
-166 107 -105 149 -213 148 -375 -1 -273 -152 -455 -437 -528 -85 -21 -102
-22 -620 -22 l-533 0 3 55 3 55 93 24 92 24 -2 840 -3 840 -92 25 -93 25 0 51
0 51 475 3 c383 2 494 0 568 -12z m-1507 -2524 c7 -4 17 -27 24 -52 62 -244
140 -383 242 -434 108 -54 252 -26 521 102 l127 60 25 -30 c69 -82 -10 -208
-208 -332 -178 -111 -385 -172 -557 -164 -82 4 -104 9 -149 34 -93 50 -130
119 -131 247 0 44 -4 77 -10 77 -15 0 -153 -134 -215 -210 -75 -92 -122 -123
-194 -128 l-57 -4 -79 207 -79 207 -32 -39 c-18 -21 -58 -85 -90 -143 -65
-121 -124 -210 -140 -210 -15 0 -69 60 -89 99 -24 49 -16 124 23 203 32 66
112 166 268 335 50 55 96 108 102 118 6 11 12 18 15 15 10 -12 118 -203 157
-278 23 -45 55 -96 71 -113 27 -29 29 -30 58 -15 39 21 84 77 171 216 131 208
183 260 226 232z"/>
<path d="M5620 4934 l0 -347 118 5 c173 8 249 43 295 134 25 49 40 160 34 243
-10 117 -31 175 -85 231 -61 62 -118 80 -259 80 l-103 0 0 -346z"/>
<path d="M5620 4005 l0 -445 124 0 c96 0 139 5 189 20 148 46 220 182 219 415
0 299 -150 455 -439 455 l-93 0 0 -445z"/>
</g>
</svg>
